<mxfile host="65bd71144e">
    <diagram id="KjrErTVRP9iZeqJHBAPl" name="Page-1">
        <mxGraphModel dx="1074" dy="709" grid="1" gridSize="10" guides="1" tooltips="1" connect="1" arrows="1" fold="1" page="1" pageScale="1" pageWidth="850" pageHeight="1100" math="0" shadow="0">
            <root>
                <mxCell id="0"/>
                <mxCell id="1" parent="0"/>
                <mxCell id="62" style="edgeStyle=none;html=1;exitX=1;exitY=0.5;exitDx=0;exitDy=0;endArrow=none;endFill=0;fillColor=#f8cecc;strokeColor=#b85450;entryX=0.7;entryY=0;entryDx=0;entryDy=0;entryPerimeter=0;" parent="1" source="2" target="25" edge="1">
                    <mxGeometry relative="1" as="geometry">
                        <mxPoint x="210" y="170" as="targetPoint"/>
                        <Array as="points">
                            <mxPoint x="560" y="170"/>
                            <mxPoint x="510" y="170"/>
                            <mxPoint x="460" y="170"/>
                        </Array>
                    </mxGeometry>
                </mxCell>
                <mxCell id="2" value="" style="pointerEvents=1;verticalLabelPosition=bottom;shadow=0;dashed=0;align=center;html=1;verticalAlign=top;shape=mxgraph.electrical.miscellaneous.batteryStack;flipH=0;flipV=0;rotation=-90;" parent="1" vertex="1">
                    <mxGeometry x="510" y="226" width="100" height="60" as="geometry"/>
                </mxCell>
                <mxCell id="74" style="edgeStyle=none;html=1;exitX=0;exitY=0.57;exitDx=0;exitDy=0;exitPerimeter=0;entryX=0.7;entryY=1;entryDx=0;entryDy=0;entryPerimeter=0;endArrow=none;endFill=0;" parent="1" source="4" target="61" edge="1">
                    <mxGeometry relative="1" as="geometry">
                        <Array as="points">
                            <mxPoint x="249" y="479"/>
                        </Array>
                    </mxGeometry>
                </mxCell>
                <mxCell id="4" value="" style="verticalLabelPosition=bottom;shadow=0;dashed=0;align=center;html=1;verticalAlign=top;shape=mxgraph.electrical.opto_electronics.led_2;pointerEvents=1;direction=south;rotation=-90;" parent="1" vertex="1">
                    <mxGeometry x="355" y="424" width="70" height="100" as="geometry"/>
                </mxCell>
                <mxCell id="63" style="edgeStyle=none;html=1;exitX=1;exitY=0.115;exitDx=0;exitDy=0;exitPerimeter=0;endArrow=none;endFill=0;fillColor=#f8cecc;strokeColor=#b85450;" parent="1" source="5" edge="1">
                    <mxGeometry relative="1" as="geometry">
                        <mxPoint x="460" y="170" as="targetPoint"/>
                        <Array as="points">
                            <mxPoint x="460" y="203"/>
                        </Array>
                    </mxGeometry>
                </mxCell>
                <mxCell id="5" value="" style="pointerEvents=1;verticalLabelPosition=bottom;shadow=0;dashed=0;align=center;html=1;verticalAlign=top;shape=mxgraph.electrical.electro-mechanical.2-way_switch;rotation=-180;flipH=1;flipV=1;" parent="1" vertex="1">
                    <mxGeometry x="370" y="200" width="75" height="26" as="geometry"/>
                </mxCell>
                <mxCell id="17" value="+" style="text;html=1;align=center;verticalAlign=middle;resizable=0;points=[];autosize=1;strokeColor=none;fillColor=none;" parent="1" vertex="1">
                    <mxGeometry x="600" y="193" width="20" height="20" as="geometry"/>
                </mxCell>
                <mxCell id="18" value="-" style="text;html=1;align=center;verticalAlign=middle;resizable=0;points=[];autosize=1;strokeColor=none;fillColor=none;" parent="1" vertex="1">
                    <mxGeometry x="570" y="293" width="20" height="20" as="geometry"/>
                </mxCell>
                <mxCell id="22" value="LED1&lt;br&gt;" style="text;html=1;align=center;verticalAlign=middle;resizable=0;points=[];autosize=1;strokeColor=none;fillColor=none;" parent="1" vertex="1">
                    <mxGeometry x="365" y="424" width="50" height="20" as="geometry"/>
                </mxCell>
                <mxCell id="23" value="5V" style="text;html=1;align=center;verticalAlign=middle;resizable=0;points=[];autosize=1;strokeColor=none;fillColor=none;" parent="1" vertex="1">
                    <mxGeometry x="600" y="246" width="30" height="20" as="geometry"/>
                </mxCell>
                <mxCell id="24" value="Cole Porter - TEJ3M - Unit #4-09" style="text;html=1;align=center;verticalAlign=middle;resizable=0;points=[];autosize=1;strokeColor=none;fillColor=none;" parent="1" vertex="1">
                    <mxGeometry x="250" y="530" width="190" height="20" as="geometry"/>
                </mxCell>
                <mxCell id="75" style="edgeStyle=none;html=1;exitX=0.7;exitY=1;exitDx=0;exitDy=0;exitPerimeter=0;endArrow=none;endFill=0;" parent="1" source="25" edge="1">
                    <mxGeometry relative="1" as="geometry">
                        <mxPoint x="270" y="480" as="targetPoint"/>
                        <Array as="points">
                            <mxPoint x="209" y="370"/>
                            <mxPoint x="190" y="370"/>
                            <mxPoint x="190" y="480"/>
                        </Array>
                    </mxGeometry>
                </mxCell>
                <mxCell id="25" value="" style="verticalLabelPosition=bottom;shadow=0;dashed=0;align=center;html=1;verticalAlign=top;shape=mxgraph.electrical.transistors.npn_transistor_1;flipH=1;" parent="1" vertex="1">
                    <mxGeometry x="180" y="173" width="95" height="100" as="geometry"/>
                </mxCell>
                <mxCell id="28" value="" style="pointerEvents=1;verticalLabelPosition=bottom;shadow=0;dashed=0;align=center;html=1;verticalAlign=top;shape=mxgraph.electrical.resistors.resistor_1;" parent="1" vertex="1">
                    <mxGeometry x="270" y="213" width="100" height="20" as="geometry"/>
                </mxCell>
                <mxCell id="30" value="4.7K&amp;nbsp;Ω&amp;nbsp;" style="text;html=1;align=center;verticalAlign=middle;resizable=0;points=[];autosize=1;strokeColor=none;fillColor=none;" parent="1" vertex="1">
                    <mxGeometry x="330" y="340" width="60" height="20" as="geometry"/>
                </mxCell>
                <mxCell id="40" value="INPUT A" style="text;html=1;align=center;verticalAlign=middle;resizable=0;points=[];autosize=1;strokeColor=none;fillColor=none;" parent="1" vertex="1">
                    <mxGeometry x="340" y="180" width="60" height="20" as="geometry"/>
                </mxCell>
                <mxCell id="66" style="edgeStyle=none;html=1;exitX=1;exitY=0.5;exitDx=0;exitDy=0;exitPerimeter=0;entryX=0;entryY=0.885;entryDx=0;entryDy=0;entryPerimeter=0;endArrow=none;endFill=0;" parent="1" source="47" target="64" edge="1">
                    <mxGeometry relative="1" as="geometry"/>
                </mxCell>
                <mxCell id="47" value="" style="pointerEvents=1;verticalLabelPosition=bottom;shadow=0;dashed=0;align=center;html=1;verticalAlign=top;shape=mxgraph.electrical.resistors.resistor_1;direction=south;rotation=-90;" parent="1" vertex="1">
                    <mxGeometry x="350" y="324" width="20" height="100" as="geometry"/>
                </mxCell>
                <mxCell id="49" value="220&amp;nbsp;&lt;span&gt;Ω&lt;br&gt;&lt;br&gt;&lt;/span&gt;" style="text;html=1;align=center;verticalAlign=middle;resizable=0;points=[];autosize=1;strokeColor=none;fillColor=none;" parent="1" vertex="1">
                    <mxGeometry x="460" y="494" width="50" height="30" as="geometry"/>
                </mxCell>
                <mxCell id="76" style="edgeStyle=none;html=1;exitX=0.7;exitY=0;exitDx=0;exitDy=0;exitPerimeter=0;endArrow=none;endFill=0;" parent="1" source="61" edge="1">
                    <mxGeometry relative="1" as="geometry">
                        <mxPoint x="500" y="300" as="targetPoint"/>
                        <Array as="points">
                            <mxPoint x="249" y="300"/>
                        </Array>
                    </mxGeometry>
                </mxCell>
                <mxCell id="61" value="" style="verticalLabelPosition=bottom;shadow=0;dashed=0;align=center;html=1;verticalAlign=top;shape=mxgraph.electrical.transistors.npn_transistor_1;flipH=1;" parent="1" vertex="1">
                    <mxGeometry x="220" y="324" width="95" height="100" as="geometry"/>
                </mxCell>
                <mxCell id="71" style="edgeStyle=none;html=1;exitX=1;exitY=0.115;exitDx=0;exitDy=0;exitPerimeter=0;endArrow=none;endFill=0;fillColor=#f8cecc;strokeColor=#b85450;" parent="1" source="64" edge="1">
                    <mxGeometry relative="1" as="geometry">
                        <mxPoint x="500" y="170" as="targetPoint"/>
                    </mxGeometry>
                </mxCell>
                <mxCell id="72" style="edgeStyle=none;html=1;exitX=1;exitY=0.885;exitDx=0;exitDy=0;exitPerimeter=0;entryX=1;entryY=0.885;entryDx=0;entryDy=0;entryPerimeter=0;endArrow=none;endFill=0;" parent="1" source="64" target="5" edge="1">
                    <mxGeometry relative="1" as="geometry">
                        <Array as="points">
                            <mxPoint x="520" y="373"/>
                            <mxPoint x="520" y="223"/>
                        </Array>
                    </mxGeometry>
                </mxCell>
                <mxCell id="73" style="edgeStyle=none;html=1;exitX=1;exitY=0.885;exitDx=0;exitDy=0;exitPerimeter=0;entryX=1;entryY=0.5;entryDx=0;entryDy=0;entryPerimeter=0;endArrow=none;endFill=0;" parent="1" source="64" target="69" edge="1">
                    <mxGeometry relative="1" as="geometry">
                        <Array as="points">
                            <mxPoint x="500" y="410"/>
                            <mxPoint x="540" y="410"/>
                        </Array>
                    </mxGeometry>
                </mxCell>
                <mxCell id="64" value="" style="pointerEvents=1;verticalLabelPosition=bottom;shadow=0;dashed=0;align=center;html=1;verticalAlign=top;shape=mxgraph.electrical.electro-mechanical.2-way_switch;rotation=-180;flipH=1;flipV=1;" parent="1" vertex="1">
                    <mxGeometry x="425" y="350" width="75" height="26" as="geometry"/>
                </mxCell>
                <mxCell id="65" style="edgeStyle=none;html=1;exitX=0;exitY=0.885;exitDx=0;exitDy=0;exitPerimeter=0;entryX=0.095;entryY=0.869;entryDx=0;entryDy=0;entryPerimeter=0;endArrow=none;endFill=0;" parent="1" source="64" target="64" edge="1">
                    <mxGeometry relative="1" as="geometry"/>
                </mxCell>
                <mxCell id="67" value="INPUT B" style="text;html=1;align=center;verticalAlign=middle;resizable=0;points=[];autosize=1;strokeColor=none;fillColor=none;" parent="1" vertex="1">
                    <mxGeometry x="380" y="320" width="60" height="20" as="geometry"/>
                </mxCell>
                <mxCell id="68" value="4.7K&amp;nbsp;Ω&amp;nbsp;" style="text;html=1;align=center;verticalAlign=middle;resizable=0;points=[];autosize=1;strokeColor=none;fillColor=none;" parent="1" vertex="1">
                    <mxGeometry x="290" y="193" width="60" height="20" as="geometry"/>
                </mxCell>
                <mxCell id="70" style="edgeStyle=none;html=1;exitX=1;exitY=0.5;exitDx=0;exitDy=0;exitPerimeter=0;entryX=0;entryY=0.5;entryDx=0;entryDy=0;endArrow=none;endFill=0;" parent="1" source="69" target="2" edge="1">
                    <mxGeometry relative="1" as="geometry">
                        <Array as="points">
                            <mxPoint x="560" y="480"/>
                        </Array>
                    </mxGeometry>
                </mxCell>
                <mxCell id="69" value="" style="pointerEvents=1;verticalLabelPosition=bottom;shadow=0;dashed=0;align=center;html=1;verticalAlign=top;shape=mxgraph.electrical.resistors.resistor_1;direction=south;rotation=-90;" parent="1" vertex="1">
                    <mxGeometry x="480" y="430" width="20" height="100" as="geometry"/>
                </mxCell>
                <mxCell id="77" value="" style="shape=image;verticalLabelPosition=bottom;labelBackgroundColor=#ffffff;verticalAlign=top;aspect=fixed;imageAspect=0;image=data:image/png,iVBORw0KGgoAAAANSUhEUgAAATsAAAEXCAIAAABd0HTdAAAgAElEQVR4nOx9WXcbV3ZuVQGFKgCFwjzPIMCZFEVKojVYttt23EmvzupMD8kvyFN+Qb/5Nf8jqx/SK93tXkl3ri23ZdmSKVAcJM4jQBDzXBhqvg97qS4vKVGURAqCVN+DlwzWsM+ps/fZ09kblWUZUaFCRZ8A6zUBKlSoeAlolX/99re/7SEdKlSoOB12u31sbAxVtOKxsbHeEqRChYpTMD09/W//9m//b49dWVnxer2XLl2y2+09JEuFChXHUKlUFhcX9/b2Wq2W9ugfEonEv/7rv05OTvaKMhUqVJzEkydP/v3f/10UReSoHYsgiF6v9/l80Wi0R4SpUKHiGahWqwaDodlsIqqvWIWK/oLKsSpU9BNUjlWhop+gcqwKFf0ElWNVqOgnqByrQkU/QeVYFSr6CSrHqlDRT1A5VoWKfoLKsSpU9BNUjlWhop+gcqwKFf0E7YsvOTNkWZYkief5drstiqJerycIQqPRYNj/kwuCIPA8z7Isy7IEQRgMBq1Wq1wAT+h0OhzHkSSp0+ngT91ut9vtsizL8/yxl+I4TpIkSZIEQRx90elEdjqdbrfLcZwgCEcfZTAYSJLEcfwsj1IgSRLQhmGYRqPR6XQajebst78mZFnmOK7T6Wg0GqAcRVGWZbvdrl6v1+v1cBnMqk6nw3H86JyfAlEURVFstVqtVkuSpOddptFoKIrS6/VnfOyFApYWiqIYhsFgT79ekiRBEDqdDoIgBEEoE/hGiH0VnCfHiqLIMMzBwcGDBw8Yhrl8+XIsFrPb7cqiQRCkWq2m0+nNzc2NjY2hoaEPPvjAarWaTCb4K8/zrVZrYWFhd3d3ZGRkYGDAZDIJgrC2traysvLkyZN8Pn/spX6/f2xsbGRkZGRk5OiLnglZlkVRbDQai4uLKysrOzs7pVJJ+WsgELh27drQ0FAoFDIYDGcfOMuyq6urh4eHRqPRZrOFQiGr1Xr2218HkiSJori3t7e4uEjTNFBOEMTGxsbKysqlS5cmJyc1Go0oiktLS3t7e6FQKBAI2O12Zc5PQavVKpVKDx48uHPnDsuyz7uMpumPP/54ZmbG4XBQFHWu43tpHBwcrK6uEgRhNBphsKdcDKL28PBwYWEBQZDR0VGPx2MymbTa8+SL88V5UiYIQqVS2dnZmZubq9VqJEkajUaQvso1DMOkUqm5ublvv/325s2bPp8PwzCKokCqCYLQbrc3Njbm5uZIknS73SRJchy3v7//8OHDH3/8MZPJ6PV6EJxQPSMUCnW7XY1GY7fbHQ6HwWB4noAEaVqtVjOZzOPHj5PJ5NbWVrFYhEfJshwOh2H/MZvNWq0Wx/Ezylqe59Pp9Orqqs1mCwQCDofjjXEsqAyNRiOVStntdovFIooiy7Kbm5vfffcdTdNDQ0M4jguCsLOzk0wmBUHQ6/UURZ2FY0GA7u/vz83NtdttBEE6nQ78A0VR0EcQBLHb7QMDA8PDw2az+aLH+0IwDHN4eKjX681ms8PhOP1iUAlLpdKjR48QBLHZbDRNg973Roh9FZwnZRzHpVKpdDptsVjgON/h4aHf7z95ZbvdLhQKu7u7jx8/JknS5/O9kDdomp6ampqdnR0bG3M6nQiCyLIMMiKTyezu7kqSNDw8PD4+rtPpTt4uyzLP89Vq9d69e48fPxYEYWBg4NatW7DIRFHkOK5cLqfT6SdPnlgsFlmWnU7nC3WqngPDMK1WG4lEwC6wWCwcxwFTvT6MRqPf7//rv/7roaEhMB/W1taePHmCIIhGoxkfH4/H4wiCkCQZi8V8Pt9LKSYXhGAwSBCEVqvV6XRvgwQ5d5wbx0qS1O128/l8uVx2Op0oijIMk8vlGIbheV6r1R7lSbD36vX65uamz+cbGhoC6/GU55MkGQ6Hg8Hgxx9/HIlEkKd75pMnT7799ttSqbS8vKzT6aLRKCziY7fLsswwTD6fX19fX11dHRwcHBoaunbtGjxKEIRut7u0tAT0HxwcmEwmq9UKz2EYptlsttvtdrsNG7vBYDAYDCCPu91upVIpFovZbBZYxefz0TSt1+slSWKeAixwo9EI4kyv158UUhzHgUXK8zw8HGhrNBpgghIEodfrMQwDghmG0Wq1JpOJJEmHw6HRaAiCqNfrh4eHhUKhVqvlcrl0Om232wmCAEOU53mwXEqlkiAIGo3GYrEoVujJOSdJ0mazXbp0CX65e/cu/APH8U8++WR2dhZ5Kjo5jqtUKmAQKrdbLBatVguWSKVS4ThO+avFYrHZbARB6HQ6nuc5jmu1WnC7LMswCeCksFgsRqMRyBNFsd1uV6vVTqcjCAKKojiOUxRlsVjAaQIEwwIjCAK+OwC+jkajMZlMFEUZjUZJkiqVSqFQqFQqkiQdHByYzWaYYa1WCzMMgNkzm81wAUmS4JFpNBqtVksZlE6ns1gs8IQLMobPh2MlSYIZbzaboij6/X6tVru0tFQsFovFosViMZvNRxnS6XRevnxZkqTDw8NUKpVKpVwuF+ycZweKolqt1u12z8zMLC0tPXr06PDwsFgsYhhG0/Sx+RJFsVAo7O3tCYLgdrsnJyenpqZsNhv8Fb600+kcHh4G9rPZbJFIhCAIQRC2t7fn5ubW19c3Nzfhyw0ODg4ODl65cmV4eDiVSq2trX3//fcPHjzAcTwUCvE8L0lSNBrleX5paWlpaWlhYaFarSIIMjIycuvWraGhoWg0ekwXkGW5Vqvl8/mdnZ1yuQwPRxCkVqvNzc3lcjm32+33+6PRqF6vr9frYLtardaZmZlyuby8vExRVDAY3N7eXnoKDMNqtdqNGzfGxsYEQQDO2dnZSaVS2Wy2Wq3SNH3z5s2pqaloNPrKOxIIpsPDw7m5uZ2dHeX3UCh069Ytu91er9fn5+f/53/+B2wQwM2bN3/+85/7fD6n01mr1QqFwvr6+vb2NoIgHMft7e2VSiWr1RoOh2/fvj02NkbTNIZh9Xp9Y2Pju+++297erlarOI5brdbLly/fvn3b4/HQNJ1Op5eXl0mSpCgqGo0GAgGYkMXFxY2NDQRBKIqampqamJgYHR3VarXJZPKHH35IJpPdbrdUKuVyuc8++ywcDtM0nc1ml5eXFxcXFxYWQOB+8MEHt27dikajwWAQjPyffvppdXVVGZTL5bp169bg4KBOp7sg1fp8HgpCkWEYjuOAi/R6/c7ODsuytVqtVqsZDIajHEvTdDQabbfbPM83m82NjQ0Mw+x2+0uVO0dRFEVRs9kci8VyuRw8ql6v0zRtMpmOcixsAsViMZ1OIwji8XjC4XAoFFLmFJjfarUODQ0VCoVGowFGbKvVqlQqu7u7GxsbqVSqWCyKoihJEkhul8vl9/vB7QwGnkajYRgG/l2tVhuNxsbGxubm5uHhYb1eFwRBq9UaDAYMw6xWq9ls1ul0R+kEuzGdTu/v74fD4YGBAQRBGIbZ29vb2dlpNpsYhnm9Xq1WC/rL1taWx+MZGRkpl8urq6t2u50kyVqtBjSAetxsNlmWBUEjSVK9XmdZtlQqFYvFXC4HG5ROpwOl4NWcvbIsg6Lx+PHjx48fgyuRIAir1QpO5r29vbW1tf39/VqthuM4y7LtdtvhcMRiMRzH7XZ7u92uVCpLS0v37993uVwmkymXyxUKhXw+X6vVvF6vzWYD2jKZDEicTCYDKkar1bLb7fv7+zqdjqKoarW6tbUFLkCTyUTTdCqVWllZ2d/fLxQKMJ87OzsGg8Hj8VAUBRs7fEHYh3me73Q6ij9vbW0tm81yHCeKIuzkKIpaLJZms1mr1dbW1u7fv2+1WmmahtgHyOuXncOz43w4FoR3rVbDMMxsNttsNmCkSqXCMAzoyUev1+l0JpMJ5Guj0VhaWqJpOhaLvcJQcRynadpisVitVp1OByv1JHkcx5VKpWw2azabvV4vTdPHFHUEQUwm0+DgYCgUEgQBFNe9vb1Hjx5ls1m9Xv/ZZ5/BttntdhcWFtbW1gqFAuwD09PTpVIJJEUgELh+/brH48nn8/v7+8Vi0e/3f/zxxzqdrtVq7e7urqysaDQap9MZCoXcbvdRGoxGo8Ph0Ov14NMGuS4IgiRJYHTASoJ/y7IMiiWwHIqioAcODg6Gw2HQDD/55JOPP/7Y6/UCN4qiWKvVLBbLzZs3bTZbNptNp9Pb29vJZNLn85lMJhAiL/sJAEAVhmGjo6NjY2Mul8tsNpMkub+//+DBA57n/+mf/slut5vN5nw+v729LYriysoKrBMQgrlcbm1tbWBg4KOPPiIIguO4R48eFQqFYrG4ubkJUnh5eTmfz09NTd2+fdtqtfI8X6vVWJbd3983GAw+n+8oSbVaDeSsIAiff/55KBRCEKTT6ezt7XW73WazSdP05OQkQRDdbleSpNnZ2YmJiUgk0u1219fX19bWdnd3Y7HYr371K/Aqr66ufv/993q93m63YxgmyzLLsoIgJBKJS5cuuVwut9vtcrlIkry48N65cWy1Wi2VSuD8oGnabDaDz6nZbJbLZRDzivyGoCXsD8vLyysrK7lcLp/Pv8JygUeRJKnX6zUaDeh+x64BBmi32wzDeDwep9MJGx2CIKAFVKvVarXa7XYRBCFJkqZpHMdFUZRlGUVRq9VqtVpHR0enpqYg2lypVFZXV7vdLuwVdrs9FAq1Wi2bzeb3+wOBgFarzefzmUxGFMVAIDA7O2uz2RiG+f777588eVKv1wuFgtVqdblcCpEoihIEQVEUjuOwazWbTRiRXq8Ho4tlWdg5YUrBPQ7rAyKQWq0W7GTYgWOx2OjoKPiKwbLCMEyv1ycSiUQiUSgUHj9+vLu7W6lUjm7FrwOCIPx+//DwcCAQIAiiVqvBoGiavn79ut/vN5vN6XTaarVubm5ub283Gg1gV+Rp+NfhcIyMjMDM8Dy/vLwMFjJ8nXw+32q1EomEIlvz+Xwulzs8PDymsCAI0u126/V6q9USRXFgYODmzZvgXqEoqlQqGY1GvV5P0zTLssDqw8PDYB2A0xS07mg0+tFHH2EYBmbt/Px8sVjc39+32+0ajUaWZRzHPR7P0NBQIBBQ7KyLw7lxLGhZdrvd5/MZjUadTudwOGDkYMSLonhsQo1Go8fj2dvbQxCkWCyurq76/f4LjYtgGGYwGI7uJM1mc3FxMZlMPnz4MJfLIQji9XpHRkauXLly/fp1l8t148YNWMcmkwnDMIjLgwMJYhvHANKBZdlcLler1Ww2m8fjAU+VTqcLBoMjIyMEQYACdswKUFIgwDIsl8vg4bDZbLDBsiwL/02n051OB4T62R3aEAMLBAKgwlksFqfT6XQ6WZZ9fa84hmFgPRqNRhAiOI5bLJaxsTGv1wsGJ/xOEITZbD7pWHY4HPF4HMLFRqNRFEWwO466do4BvNkQXjpmeZ0EqCE0TV++fJnjOKPRiOP4yZwcBEE4joPw5MjISCQSATFKUVQkEhkdHcUwbHd3V6vVghliNBqB+d9MTOgc3iGKYqfTgWhNqVQqFAog8BqNRqFQSKfTfr+/Xq+Dnnb0RjCf3G53JBKBNAmYl5Ob5ClQEq1AH36hJQzXK5cBB4Ljt9lsgjGTTqeDwSDHcRRFmc1m8AMDqwiCIAjC48ePi8Xi84Io4MRutVrlcrnVanW73VarBakFe3t72WyWpmmapp/JsWAvmM1mCFyB1WQwGOx2O1jRoBhXq1UURcFOO7sCBjYLKN5arRY8zxAtf/1cJdARQDaRJAnSjSAIURQJgiiXy5ubm2CwgJ+pXC4f3dJRFKVp2uv1Wq1WkPg8z0PoGO4C7SAYDIIx0m63Nzc3gVucTqfH44GXHiVJr9eDflQsFre3t1utlkaj0ev1oGeRJAmWwtFbYHmwLNtoNGRZdjgcoHCBiLfZbMFgEFzEkFkF4htsqDeT6Pa6HAspchA4WV1dzefzzWYTNgoIHhgMhpmZmVKp5Ha7CYI4ei9ocaFQSJblxcXFJ0+euFwuj8dzNHPwhVDyIuv1utlsPp1jJUlqtVoQLIFfTCbTpUuXYrHYZ599Vi6Xs9lsJpMBBxWCIMBsP/7445/+9KdsNlsqlYDb4QlDQ0On0wYGGMMwigAGiTAyMmIwGE5yLIgPh8Ph9/sxDKtUKjBFoKgzDIOiaLvdhgiQkpt59ijCSRXjHAHLV+FYZfmWy+W5ubm5ubkHDx7UajUEQSCWEwgEYrHY0Sfo9XpQ6U9micL2aLfbr169Csbk+vp6LpeDxKYbN258/vnnwIRH77JYLOFwGEyeu3fvPn78GEVRu93++eef37hxY3Bw8GT7C3BSggIMSu8xCq1Wa6PRgCgUxJb0en0/cawkSRD3a7VaOI6D7Xo0GIWiKEmShULB4XAYjcaj94JZZbVaNRpNKpWSJKlQKGxsbEAg5IwAFRQgy/Izveqw7mHDhKBxNBqVJAlmHMQwgiC1Wg14vlAogHILjuLDw0NBEMCxBE6gXC5Xr9dfuO5JkvR4PKIoHkujicVi8Xjc4XA8c11arVav19tsNhuNBoIgkHAH2xfHcfV6HbQJRbS/1PYIuVwXkf0LX1Oj0Wi1WrCrQZIeHh5ubGyAiw40AvAVn4zAgYrxPH81iqKwPXa73Ww2C95B+LHRaIBbIRwOH+Ux8B4HAgHwVnQ6HVmWSZKEEBd4H08ZyEkyQHs6qhrA0oIhv5mc6tflWCXOKYpiNBq9fv364OCgMungaq9Wq7lcjqKoZ+Y/6fV6nU7ndDodDkehUIA44UsRAPqqJElarVbJYTwK2LucTqfX6y0WiwcHB41GA2Itp6c0Hh4e/vTTT7IsX716NRqNxuNx+P0vf/nLw4cPPR7P6bT5fL4bN24Eg0Gfz3c0VROMH4PBcFIqQ7zK7XbDbowgiCzLGo0G1D8QIq1WC6JoJpNJcaG9heh2u7lcbn9/H/w0f/d3fwe6a7VaPTw83N/f393dfakHgqkciUTsdvtnn30G8gtCAD/99FO73XY6nce0XAzDfD6fzWYbHh5mGEYQBAgO7+3tQYaMxWI5dj0oNSCdjy2PTqcDuRY9PCrwWhwLiRPFYhHcS8FgMB6Pj4yMKPIGEms4joMIWKvVOqnxajQajUbj8/nGx8chatdut5/nEjgKMDmq1erm5mapVAILzWaznUwthnArBFTAQ7a1tUVRlM/ngw8G+fSVSmVzc3N/fx/ckuC7r9VqkFITCASGh4dbrVa9XpdluVQqHc3vOfoucK5YrVaWZSE3IxgMWiwWUCIgcgjO25OZT7BpwPkHWBygwFMUZbfbRVHMZrMMwyjOGxzHLzT69zoAg7DT6XQ6HYfDEQwGIZsS1JaXIhuSTCuVysHBgSzLHo/H5XIRBFGtVjUaDfj5OY6DEL1yV7Va3d3dhVCq2+0OBAI8zxcKhbW1taOh9WPvAvWepmnIfnM4HN1uF/wXuVxuZ2cHwgHHFMY3htflWJZlgQdgRo7FOWEf0Gg0xWKRJMlmswlsdvJRfr+fJMl8Pl+tVhmGwXH8mfxwFKC45vP5ZDJZrVadTicEeI1G40kRiGGYy+XieX5xcbFQKCwvL0uSBP5S5GksEUR1Npt9phMYAN7vtbW1ZDL5vP6dinsDjj3IshyLxfR6vSAIq6urf/zjH81m8+jo6OjoqNlsPqkYQzZip9MpFotwaE6SJNAhu93uxsYGwzCwb4C5+FJpJ70FaCgQVarVamdnWlhpmUzm66+/liTpxo0bsVhMCaWAwxLk11G1JZfLlUqler3Ocdz169fhejCFIBz4vMApCMRMJrO2tmaxWC5fvoyiKARynzx54vV6XydF7DXx6hyrxAyr1Wq9Xo9GoxDGOMotOI6bzWZw/9br9UwmA9vLyaeBdgfxw83NzWq1euxzgkW0s7MDMSTkKccCAXa7HYzD530D2LsgO1Kv10OABKKFyFNlodlsQnZhMBhMJBI0Tdtstlgslslkfvjhh62trYcPH8KhXxzH4/G4wWCAhGF4OIZh6+vre3t7Go0mEom43W5BEJrNZjqd/q//+i8I8IL32Ov1ut3uk4acMmngvIETv+DLAYmu1+shpcZms9nt9meeLoJdHUVRjuM2Nzf1ev3AwIDL5XopD/y5AKI7cCCmWCx+9dVXkIcErrhOp9NqtXieP2YZPhOgJel0OpvNdnBw8M0339y7d4+iKHBwkiQ5MDAQCASOGURGo9FkMpVKpf39/Wazef/+fVEUBUFgWRai6JA8C67gUqn08OFDhmEmJye1Wm00Gm02m9lsdnd39z/+4z+UsyLxeDwWi4VCIfBiXuT8PRuvy7GQfsAwjNFohOTEo9fAN4N5YRhmf3/fZDI9c+mAdBwaGpJlGVL8jl3QbDYXFhb29vaOnheXZTkej1+7di0ajd68edNqtT4vIgd7l91uv3379ujo6P379+/fv//73/8eTCnYpuLx+F/91V9du3ZtYmLCbrdDgGF8fHx7e/urr77qdrs4js/Ozt64ccNut3/00UcOhwOS/jAMMxqNGIbNz8+XSiVYW4ODgxRF5fP5H3744be//W2pVJJlOZFIXLt2LZFITExMPDMwo3hcIesAQRAIMED0UqfTiaIIGZ02m+2ZgwWGhz1hYWFhc3Pzb/7mb65fv/5SHvhzAUEQDofD7XbbbLaHDx/+7//+r0ajgaTua9euIQiSy+U4juN5/oXSBAJFDodjfHy8Wq3+5je/2d7exjDM6XRC4vHs7Cxksx+9y+l0RiKRdDpdKBTu3Lmzs7Mjy7Ldbv/iiy8+/vhjp9NptVpFUcRxnCCISqWyvr6eyWTMZnM8Hh8cHAQV+v79+7/5zW8gyexnP/vZ559/Pj4+HgwGq9Vqn3EsOIHtdvvMzIzf7x8dHQU97eg1oB+Gw+FPPvlEluVAIAAXQLZQMBhUdEJw0DkcjuHhYUEQhoaGJicnIQ6h0WjA5ePxeI6mkgMg3SSRSEDO5+kEgwsHRdHh4WFIFTx6RN7n801NTQ0MDCin8GmaDofDt27dwjAMjnTDt0SeHhAF/zOO4z6fb3p6GsOwRqMxNTUFiZAGg2FiYgLSgMDxCweVEomEyWQ6RbgQBDEwMADDMRqNkF5DEITH45mdnZUkKRKJwCFe2Hz8fv+NGzdMJpPf74f3jo6O/vKXv4RPMDAwQNM0fCC/3w9pdCAaXC7X7Owsx3GhUIiiqBfGJ3w+HzCbRqNRHG8oihqNRq/Xe+3atU6n4/f7QTsAh5/X64VclPHxcZjSSCQCGUJ+vz+RSJAkCU4gWZb9fn8oFAI/CMyqVqttt9twjV6v9/v909PT4NNCEMRkMjmdzpGREbfbDV/W4/HMzMyAax2Opw8PD4NhArdQFHX58uV4PA7nilAUdTgcV65ccbvdtVrN7XZDvjG869q1a2azORqNgryDAyQ+nw/CsE6nc3p6OhQKhcPhM5ZAeX2gihWEougXX3zx5ZdfXr169Yw3g1EKWo3i0z+mp4HuCgNWoj5wghwiAUcvhtgJZBrC4XLlpDs85KT6dNS9fkYPnkLSsQcCPeDoVuiEeC/P8zBR8CJlxkAKoCgKviu4TKHn6IvgdnCzvZBauBF2HuBJyGKFyVGeozwB3gJSD4iHs2DwV9Bf4IHADHDNsQfC76dPnfIpj02F8ijI2jsa3oNbjg4HZgDGCHMF6wFcQfCL8kzFOQSLQTnZBx9Oyc0EAwFFUWUqlNmA+YeHI0/tWJhSGK+y5CRJOvp1gGa4XRkyTKbyORSaz778XgHz8/O//vWvm83ml19++VqeJ5j90wUzLLgzJnDBJJ68GIyNVyf0VUlSBniKLwoAlx2L0MKieQXKn0nhKbN98veTM3aSkrN8vhe+6BVoe+btcOULnwmqwSmR8LNMxTGALvC8Rz3vXa8we+eCtzSUp0KFimdC5VgVKvoJKseqUNFPUDlWhYp+gsqxKlT0E1SOVaGin6ByrAoV/QSVY1Wo6CeoHKtCRT9B5VgVKvoJKseqUNFPUDlWhYp+gsqxKlT0E1SOVaGin6ByrAoV/QSVY1Wo6CeoHKtCRT9B5VgVKvoJKseqUNFPUDlWhYp+gsqxKlT0E1SOVaGin6ByrAoV/QSVY1Wo6CeoHKtCRT9B5VgVKvoJKseqUNFPUDlWhYp+gsqxKlT0E1SOVaGin6ByrAoV/QSVY1Wo6CeoHKtCRT9B5VgVKvoJKseqUNFP0J78SZZlBEF4nmdZFsMwnU6n0WgwrAe8Lcsyx3GCIGAYhmEYjuNnIYPneY7jZFmWJIkgCJ1Oh6Lo6beIogi3aJ7i5C2SJAE9HMcpj33hky8CCrUoimq1Wq1W+zxqu91ut9uVJEmSJOVPKIpqNBocx0mSxHH8lCEIgsBxHFwPeCk64RPwPN/tdgVBAJIQBMFxXKfT6XS609/+vGcKgsCyLIIgOp0Oxn6OX0Ghmed5jUZDEASGYT35ys/DMzgWFsTu7u7S0pLVah0eHrbZbBRFvXmm7XQ66+vruVzOaDRardZgMGixWF54VzqdXl9fb7VanU5nYmJibGzshRKnXq+vra2xLOt0Ou12u91u1+l0J4lhGGZ9fX19fX1ycnJ8fBzW3GuN8JVQrVbX1tba7bbRaHS5XMFgkCTJk9Q2m82HDx8+fPiw0Wg0m03lTzqdzuVyRSKRK1euxGIxkMjPfFE2m11bWzMYDE6n02az2e32l1q7PM8zDLO1tTU3N5dOp+v1uiAICIKEw+GRkZHh4eGhoSGt9hkr8HmAlZnJZJaWlrRa7fDwsMvlMplMLytKTgHHcc1mc39/f21tzePxXLp0yWQynUXovzE8Y74kSYJ5+eGHH4LBoMPh0Ov1RqPxzRPHcRzMnc1mCwaDdrv9dI6VJEkUxWw2m0wma7UawzAURcXjcZDop9zIMMzm5ibDMAMDAxqNxmw2n7yeZVlg7G+//dZoNCYSCdipzmGcL4lms7mxsVGtVm02myzLHo/nJMd2u916vb6wsPD73/+eYZh2u62ILZ1O5/F4RrMBe40AACAASURBVEZGbDab1Wq1Wq16vf6ZLyqXy48fP7ZYLIIg6HQ6m812xoULH6Jer2cymSdPnty/f39ra6tSqXAchyDI0NBQp9PRarV2u91kMhkMBgRBzvJkWZZ5ni8UCnNzczqdzmKxUBRlMBjOkWNByuzu7t67d294eDgWi+n1+tMXzxvGS0i4tx/dbrfZbFYqlUajAYoTLFyapt+qSX9j0Ol0ZrN5dnY2kUgovMGybDqd7nQ6BwcHJElOTEw8j2NfGRzHlUqljY2NH3/8sdVqzc7Ofvrpp4r2Dt9oZ2enVCqNj49PTU1ptdpz5Lp3G2flWFmWGYZhGAZMylar1W63EQTBMMxoNBoMBqPRqNPpQG9ptVqCIOA4LggCwzCiKGq1WoPBQNM0QRAajUYURbCTu92uwWCgKAqskW63y7KsKIqSJGk0mkajUS6Xi8Uiy7I4jgeDQbPZTBDE81SpTqdTLBYZhpFlGcdxHMdZls3lchqNxmQynducHZkTURQZhul0OhiGybLcarVAUuA4DnNiMBgwDAPTGkxKDMO63W6n09FoNDqdzmQy0TSNoijMKvyu1WrBVAazjWEYQRBg6iRJqtVqpVKpXC6zLEvTdK1Wg+tPav5ardZoNE5OTn7++ecOhwM0lFqtdu/evZWVlVKphGFYNBoFk/gcp6XT6WQyma2tra2tLbvdPjk5OTw8bLVaQSVZWVl58OBBOp3e3Nw0GAzxeNxgMBAEAboASZIEQeA4rtVqwaSE4RsMBkmSqtVqqVSq1Wo4jmezWYvFYjAYYD4xDNNqtSzLdjodQRAEQaBp2mQyEQRBEAT80mq1eJ43mUwkScInUz4NrOR2u10sFkulUr1eL5fLh4eHsJC0Wm1PXDkncSaOlSRJEISNjY35+XmdTkeS5PLy8srKCoIgBEFMTExMTk6OjY0FAoFGo5HL5ZaXlyuVis1mazQa8/PzzWbTYrGMj4/fvHkzEAjQNM0wTLFYTKVSu7u7o6Oj09PT4FXKZrOpVIphmG63S1FUu93+/vvvQQUKh8PghYpEIs/TjVutVjablWU5FAqBr6Xb7T558oQgCI/Hc46zBhBFsdVqPXr0aHNzU6/Xcxy3tLSUTqcRBIFlOjExMT4+ThBEqVRKp9N7e3sgelKp1Orqqslk8nq9s7OzN27c0Ov1Wq12Z2dnfX2doiiLxRKJRNxutyiK1Wp1fn6+XC5Ho1GTydRqtZaWlv7yl7+k02mdTnf58mUURcfGxiKRCEEQZyEbx3GXy1Wr1XZ3d2GqBUF4pvvqFQBSrF6vb25u1mq1y5cvh8PhcDhM07Syi3o8ntnZWRzHQbweHh46nU6LxbK8vLy6uhqNRkOhkNPppGma47hisfjw4cNqtTo2Nobj+NraWjKZTCaToigWi8XDw8OPPvqo2+1ubGyA3p5Opzc2NiqVSq1Wu379+gcffBCJRHw+H8Mw5XJ5aWmpXC5fvXo1Ho8DG8NDdnd3SZIcHx8vlUrfffddMplcWlrKZrOtVuvmzZsffvghcP7rz8/r40wcC58hl8stLCwQBGEwGNbX13d2dnieR1GU4zie5202m8PhaLfbhUJhcXHx4OAgHA6zLLu7u1uv18HYcLvd4KLsdrvVanVvb29xcZGm6UuXLoF7tlarpVKparXabrd9Ph+Koo1Go1qtarVaiqIajUa32xVF8ZkUghaQy+VQFPX7/WC2ZTKZvb29aDQqiiLsY+c1cfBGjuNSqdSjR48oihIEYXNz8+DggOd5mqZZlkVR1Ov1WiyWarW6vb39ww8/iKLodruz2SwskWKxaLVaw+Gwy+Wy2WyFQmF9fd1qtbrdbofD4Xa7JUlqt9s7OzsHBwc4jns8HtD86/V6pVLRarWVSqXZbLIsC27YswBFUZ1OB/uYMiHntc2CE6TRaBweHrZarbGxsaGhIafTedTSNpvNRqMxm80SBNFqtWBoFEVlMpnFxUUURUHvQBBEEIRGo7G+vp7P5202m8ViqdVq9XqdYRie58vlcrVa7XQ6hULh8ePHGIZZrdZisZjJZAqFQqFQoGkadm+bzdZut6vV6sbGxsHBQSgUCofDoAM2Go1MJrOyskLTdCgU6nQ69XodnCD1er1UKjWbTUEQzj69F42XtmNBa71169Y///M/VyqVYrG4tbW1uro6PDzs9/t5nhcEAdaT0+mMRCLXrl0TBOHw8LDT6aytrWEYZrfbn8l1/x9ZWm0wGHS5XKVSyWw2UxQVCoVu3LgRj8cpijp5vaI95vN5t9vt9XrhU9VqtUajAeoW6JkvO96zAPRAiqJ+9atfmc3mSqVyeHi4tbW1sbExPj6OoqggCNVqdWlpyWazDQ4Ojo6O/uM//iPojZ1O56effrp8+bLNZnvhi4xGYyAQIEmyUqmMjIyYTKbR0dGrV6/6fL6z+8B4ns/n8/l8HlzNFEU9M5r1agC9o9lsgtFkNptpmj5mxUCgTq/X0zTd7XZ3dnYsFksgEDjlsRBhstvtV69eNZlMEHecnZ0dGRkJBoPtdhvDsEqlUigUBgcHf/azn7Xb7UajkUqlFhYWHA6Hx+Phef50yjEMI0nSbDZ//PHHoDbHYrFPPvlkcHDQbDb3xMX4TLw0x0KQamRk5NatW4VCIZVKVSqVXC4H5hzylHlkWTYYDOFw+Nq1axiGbWxsrK6urq6uHh4eMgyDPI36Pg8YhlksFr/fH41GWZYFX3EkEnE4HM+8XhCEbrfLMEyz2fR6vU6nk6IocHFLkgT7EuwtLzveswDiolardXp6Oh6PFwqF5eXldDrdbDZB7QSzotVqORwOr9d76dKloaGh9fV1DMPK5fLGxobP5xseHj4aNX0mdDodhFgGBgZsNpvNZkskEsFg8HlWuiRJLMumUqlkMgmeVQRB2u321tZWo9EIh8PBYPB843agd3S7XY7jcBwnCAIsxmPThaIosEe73a5UKsDepwNFUaPR6HQ6eZ4PBAI6nW58fDwajVosFsWGlyTJ6/V+8MEH8NH/+7//e3NzE1whL/z0YAZbrdaBgYF6vZ5KpaLR6MTEhMvlIknyrY7unA6z2ez1eq1Wq06no2na4XBAsE5Re0BW2e32eDwejUZBHw6FQpVKZWVlpdVq1et1nU73wtX5UgBNrNPpyLJMEITZbDYYDDqdjqIok8nE83ypVIL/PceXKtBoNA6Hw+/30zRNkqTFYnE6nU6nE9xvcA1FUZFIJB6PJxIJt9sNO8bY2NjCwsLW1la9Xu90Oi/cB14WEJH6+uuv79y5A+4T5Gl0Jx6Pe73eWCx2QXPyQhAEYbVaEQRpNBrn8kC73e5wOCKRiNFoxDCMoiifzxcMBmVZzmazDofj3XBHvzTHUhTldrtNJhOkQxkMBoPBoNfrlenAMIwgCJqmXS6Xw+GAAD2YLsjTVKpzl1jdbrdcLoPjCnyw4FldXl4+ODgwm82gnj1vi35NwACdTic4kEiShGkB5Q2uIUnS5XIp+z+GYXq9Huan3W53u12e589XiiFPg5wYhkHGksKxEOlpNpuFQgGyps5RMT4jYKLOy+OFIIjJZIKgvZITotjDzWaTpulzD2L1BC/NsSRJWq3WkyF7BcCxsiwbjUaSJN+MYGu327lcbnV19d69ez/88MNXX30FyWWw8XIcZzQavV7vBb0dwzCIXZ2ieoFKQlEUiJILouTkS81m87Vr16anp81mMyjPoig2m81SqbSwsLC6uvrZZ58NDw+fEjPrFxAEYbFY3g22PAWvYseekteGPHWiQn4mpJIqUS+O40RRPMWC5Xm+3W6DC/qM9EB6TaVSAS9OMBiE7QueYLfbJUnSarWHh4eVSqXVal3E0gQ7VqfTnWIQgr9dya1FnrpVIYX1eQ5wMICV9OCXJQykZyAQuHTpkhKP5Tgum82ur68vLi4Wi8Vardbtds/LswLOApIkIZgMlB+T77AkwIJFEMRut0NqxzGAQwSm6CzeWphhuAymDixqSI18JsDOZ1n23LWbi8P5i1VZllmWbbfb7XabZVnF99Nut2G7O2Xq2+12rVYTRfGUPfwYRFHsdru5XO7JkycURf3Lv/yLz+fzer3APPDe+fn5ra2tYrFYqVSsVmtPLDewtBmGAWc78lQ8wbQ8b1WJosiybLPZbDab52XlYhhG07TdboeIFGTqn1cWqkajMRqNEFZptVqNRqNer1MUdVT7ADEEkTyfzxeNRsGgPYajC+l5Ub2jAKMd3J+iKIqiCMnVp2S2QnwBMjRedcRvGufPsSC3ms1muVyu1WomkwnSABiG0Wg0YOPpdLpOp9PtdiGjsN1uw05Yq9Wy2azBYDg7x3IcV6/Xq9VqtVp1uVzj4+PhcNjtdiscyzAMJCfXarVCoUAQRE84ttPpZLNZs9lcrVatViuEInO5HMdx4MUFzQUSp8rlMugarVarUqlks9lcLtftds+LGNi7YM+HwMl5PRm8GzRN+/3+TCazubnJcRycPVA8uvCVDw4Oms0mqABmsxluh6B6qVRyuVygvZfLZTBtXsixkD/j9/shvanb7YK8CIfDYMfBng/ir9VqQYJUqVQqlUqQ8NwXOP/EK0mSIAydz+dhLrrdbqFQYBjGYDBYrVbILENRlGGYg4ODfD4PAWtIEIMPefbXsSxbrVabzaYoinq93m63G41GRamGZH3IFoD8irMEEi4CDMOkUqn9/X2YCkmS6vX63t6eIAihUMjhcBgMBhzHJUmqVCpw0gWEUT6f39/fT6fTrVbrXCgRRbHRaEDqBXizz9G0Bv6naTqRSFgsloWFhbt37+7v78MHgmtyudyDBw92dnZEUYTEL0WGSpJUKpWU60FaQZrECzmWYZh0Og1Lrt1ugxyv1WoEQXi9XqPRCCKgUCiAttVut0Fonq80vGic/x4L0R2NRlMulxcXFzc3N3mer9frKIoODQ1BSjqCIKIoulwut9udyWT+8z//0+Fw2Gy2YrFosViOBYpQFN3c3MxkMmBrHTtr0m63Ib3GYrHYbDZIXVY4FoL1EG5pNBobGxtut9vn8735NFHIvJEkaWNjo1gsYhhWrVaLxaLb7R4ZGYEkLZfLFY/H19bWDg4Ovv32W8i8gzUHUUF4lEajMRgMh4eHCwsL9Xpdr9eHQiGr1XrSPocg8MLCQrPZVE4CSJIECcxWq9Vut8OTz3E2UBTV6/V+vx+UBYZhFhYWNjc3FXc0pBOZzeZQKDQwMABZ5ZIkeTyeRCKRz+eXl5cbjYbH44F8DI1GowQjwOON47iSADsyMtLpdMAQRVF0bW0NMq5BnR4ZGQmHw06nE+4NBAKlUml9fb1cLnu9XngOQRCKOFAOhAuCkMlk7t+/Pzw8nEgkwK19XlP0Ojh/IrRardlshgyy/f391dVVQRD8fv8HH3xw+/btWCwGkSGKogYGBkZHR5PJ5O9+97twOByLxVwu18DAgOIGgORsFEUfPnxYr9fB6TU6OnqUY1utVjqdbrfbHo/H5XLBgQTlr/AB7Ha7z+dbX1/f39+HiOibP0JlNpsHBwfb7faTJ08ODw83Nzf9fv/w8PDY2NjNmzdNJhOKosFgkCCIw8PDTCaTTCY5jpuZmQkGg26322AwKKojjuM0TTebzW+++cbv98NsUBR1cknBLv3NN9/84Q9/gCMccLvNZhsYGPjiiy+uXr3q9/uPyrhzAYgYgiDsdvv8/Pz/+T//BzIZQPkcHh6+cuXK2NjYBx98AKdPEQSRZTkWi2EY9tVXXyWTyTt37mg0mlu3bkF8Fc5LQpIDhO52dnZAtBmNRtBZIN7+6NEjmDpJkv7+7//+b//2b+PxOHCswWCYnJxst9tff/311taW1+sNh8PDw8MOhyOfzwPlinRgWXZ9fT2VSjUaDYifv70cqzgYb926ZbVanU6nwWDQarWhUOjWrVter9fj8QAj4ThuMpnGx8ctFks8HjeZTKBdgF4Uj8e1Wq3f70cQxOVyDQ8Pw+EbCMFBWsWNGzcgn8nhcLhcLqfT6XA4BEGAnAQcx30+39TUlCRJDMOMj49DAPMotaCA+Xw+BEFCodCxw8eQS+zxeCYmJqxWa7PZDAQCZ6xlcQyQozM6OqrVakHowqYxODhoMBgCgYDD4QCNAMdxh8Nx5coVQRAgOwcOAIC/BzaWeDwOx8qHhoZge4ScHpfLdfnyZY1GUygUut1uPB6HDDu9Xh8IBGw2GwwwEonAKR+z2TwwMGC1Wo+ptZDIcfnyZQRBIBFX+RPc5ff7x8bGfD4f5Bu87GycDpgEmqYxDAOzKBwONxoNcPCEQiHYuOx2u8IGKIpaLJZwODw7O2swGOr1OoIg4+PjwFc4jkciEUjHdzgcMzMzbre7Uql4vV673c4wDIqiFEVBCifkYyMIcuPGjUQiYbPZ4C0GgyESiciyrNVqR0dHzWYzfAJ4ncVigXPRGo0mEol88sknYJ0NDAwcTTfoOVDFc4ui6BdffPHll19evXoV4jE8zyu1WlAUhQgNRNshz17JhgdzSJblcrm8tbX1zTffdLvdL774YmhoCFJtwJ6E6VA4ChyV8FilLomyenAcB+UEqoTIsgyC9lhBCTi4B18I9KWT2wU8BBwtYNMi//8R6lQqdefOHTjRDmdNTsYbjtYTUY7Iw0TB2RcgDKZFKeyi0+kajUY6nV5ZWVlYWIhEIp9//rnFYlEKvsC0ADEwnyzLKmEwmARZlpUsCPhfmDrI0IARHUuBAGrhUSerxsDb4cZTqq4sLCzcuXPHYrHEYrFwOBwKhV6Kt5XAnnKCEhYbjBoGfvR6oBNohnvhc4N7DMaIYRh8cShDgyAIhmHJZPK///u/nU7nxMSE3+93uVxAJ0mSoPDD/8J3UehRShGBTg7qGFwJ1yg1bkAH6WGi4vz8/K9//etms/nll18+e6OHqNqxCT35i5IgCv8LNYHg32CCgu30PHUCluzpIW/4tKdcc5b6Q/Ci0695IZRyR0f92CiKwvHLY1cefSMsApgrHMeNRqPFYnlmrg9co9frT58T5eucEpIBaiH16mVHel6A4Zycn+cBWAjO9J5y2dG5BQ6EHQXYz2g0OhyOZ0oW5bu8MMvihUVLeoi34pCuChUqzojzNKY1Gg0ci7t9+7YoiuDSeEtO7p8OmqYnJiY4joPSR+d7tAosKxRFwTcLScVvz1mQU+B2u69du0aSpM1mM5vNbyHNsG2GQqFPPvnEaDT6fD6wOHpN1wXinDmWpmmapiORCHK2WltvCRQnDXIBZIOW6/F4JicnL+L5FwfwMiJvMc2gSEcikXA4DL+8taSeFy7EYd2Ps3bRNPfjnCD9Q3a/0Pn66AOVVYUKFQpUjlWhop+gcqwKFf0ElWNVqOgnqByrQkU/QeVYFSr6CSrHqlDRT1A5VoWKfoLKsSpU9BNUjlWhop+gcqwKFf0ElWNVqOgnPOMkQKfTqT0FlPkwmUwWiwXOzUGvPuRpMyulzBrUQ0QQBNrdw6Hhbrdbq9WgCbLBYLBYLHCQjWEYqEuMIIjZbFYqykKvQQRBNBqN0tmJ5/larQY1EKHuO5wpBzqhdBD0XIWj7c1ms1qtQgEBKAWCIAg0SoY6IFqt1mKxwLFpjuNqtRoUudXr9RaLBY4yt1qtd3j4VqsVTrq/e8NvNBq1Wu0Vhg91dqDNdLvdVoo/WiwWqGTEsiy0YoPh2+12i8UCXcubzSY8BIrakCQJjaebzSZQaDKZHA4HTdNGo/E1C9A8g2NLpdKjR4/m5+eTySTQNzIyMj09DZUEFhYW5ufnYeQzMzNjY2PwgZPJ5NbWFoIgNptteno6FAohCJLNZpPJZKFQQBAkEolMT0/D51lfX5+fn4dBTkxMzMzMYBgmSVIymVxeXobVMz09PTQ0BB9yfn5+b28PQRCXyzUzMwP9OFKp1Pz8PNSVj8fjMzMzwIRPnjxJJpOw2qanp6emphAEYVl2fn5+dXUVpm9mZiYWiyEIUiwW5+fnM5kMgiB+v39mZgZ68+zs7Bwd/szMDCzl8xp+MpmEmlhnGX4ymdzf3z85/GQyWa1W37bhQzW5Mw5/cnJyenr6HIf/+PHj+fn5k8NPJpNra2unDN/n812+fJmm6U6nk0ql1tbWQExMT09/+OGHrVarWCyura2tr68jCILj+O3bty9fvlwoFLLZ7Orq6sHBAVB4+/Ztn88HbR9XV1eBwuHh4Y8//nh8fDwej58/x0LBEagDBBJCqdWEPC17gzwt3qHUpIQKdwiC6HQ6KMkD1yi/H3uI0t5Op9NBCRWlE/HJhygvhYuPPuTk7/BS5ZqTD4FGHmd5iEK5UpvmvIYPrYnOOPxn/g4PebXhH33IKw9feYhSFPr0hzxz+PC7UlLn9YevlBM7NnzlIacPXym+pZREVYZ/cjhQ4+YYhcrFxyg8Vp/slfGMymwTExONpwBZRVEU1MVDEAR+h+uhFzOCIKIo1ut1kElQRA/0IpZlG40G6EXQ4Rf0IujvADMCDchQFJVludFogFyHw/FKOzyoCg/TDRWJEQTpdDqNRgN6W0BxUPgMUA4XxgUn7BEEkSQJmmjA94M2E8jT5hog70mSVLpdQcvg1x8+FApXh//Ght9sNhuNxqsN32QygVbc6XRarRZQSNO01WqFUnutVgvqvEM/eJqmoVJkq9WCh+h0OpvNBlsdPAQopCjKarVC2bNX4NsXVGaDCnQul+uZN0Od0ZMAReg1AaVS32aow3/m7+/J8N8GqL5iFSr6CSrHqlDRT1A5VoWKfoLKsSpU9BNUjlWhop+gcqwKFf0ElWNVqOgnqByrQkU/QeVYFSr6CSrHqlDRT1A5VoWKfoLKsSpU9BNUjlWhop+gcqwKFf2EC+kfe0bIsizLMsdxHMfJsixJEhwUBrwZAiRJghOMOI73vHW6IAg8zwuCIAgChmFwUhzHcTjwfdFvlyRJFEU4WQpvv4iXyrLM8zzP86IoiqKoHP6Gc+3n/rp3D73k2E6nwzDM4uJiMpmEQkFDQ0PDw8ODg4NKy+2LgyRJHMeVy+W1tTVRFIeHh10ul06nO5dCAa8AWZa3t7c3NjbW1tZSqRRN0263+8qVK0NDQxRFwTHuC0Wz2cxkMnBi22azBQKBc3+pIAgcx0HVmMPDw2Kx6PP5wuHw2NjY6OjoeVVpeLfRG46F3bXRaGQymUePHv3pT38qlUrVavXq1asMw+j1erfbfdE7LQj7Uqm0sLDA8zwU2oJSIBf30ueB53mWZXd2du7fvz83N7e6umq326PRqE6nM5lMPp/vDey07XZ7f38f6mZFIhG3232+HCvLcrfbrVara2tr33333dbW1sHBQSwWGxkZwXHc7/cbDAYoDaHiFPSGY0HWbmxs3L17F0GQX/ziFwRB6HS6UqlUq9V2d3f1en0wGHxeHYx3D/l8PpVKpdNplmU//fTTf/iHf2BZlmXZUql0586dDz/8UK/XEwTxmkW9eghQuQ8ODubn54vF4uDg4NTUlMViqVarpVIpn8/fu3dvdHQ0kUj0mtK3HT3j2E6nc3BwkEwmr1y5cuvWLa/X63Q6//znP9+9ezebzWIYZjQanU7ne2LblEql9fX1crms1WqvXr167dq1fD6/vb399ddf7+zsxGKxYDColEfrR8iyLAhCoVBYXFw0Go3xeHx0dHR8fHx+fv7777+vVqv5fN5isQwMDLwZo71/0RuzAThWFEWoBuZ0Ok0mE47jdrs9EAjwPJ9Op+v1uiAIUG/xnQdU3yVJMhQKQdFgmqahxpcgCFCDF0qc9SkkSQLFimVZnU7n8XgsFguKohaLJRaLYRiWSqXK5XK73YZycCqeh55xbLvdliSJJEmKosxms16v12g0ZrPZ4/EIgpDL5aCW3zvPseCvBo4lCMLr9UJFP6PRCNOCYRjU+wafdp8C/Hwcx/E8D6KZoigURSmK8nq9Go2mVCrV6/VOp9PXw3wD6OUeK0kSFHSFaq4oikKNTKjgDh/vnedY2HygfjwU2icIAkpGg9vJaDRyHNdsNvt6KcMYWZaVJEmr1RoMBp1OBzWKjUYjjuMQ51P32BeiNxzL8zzDMBzHaZ4CTBccx/V6vSzLnU6H4zglPPgOAwLC7XYbigzr9Xoo6gvVq0GiCYLQ7XahfG6fQhTFbrfb7XaBIY9WJ1cialATuK+H+QbQG47lOA5UoJ68/a2CKIo8z4PeC1Wq30mIotjpdNrtNqhO77wgvjj0LFtAQU8IeAvxbs+GMrp3eIxvBr3hWIIgzGazwWBQ/fiQigit36Br2zsJrVarfwrIBuk1Rf2K3nAsjuMUReE4Lj4FiF4w2FAUJUkSTJ13/tNiGAYcazabMQxTLD1IOQD/Khi0/RuMRRBEo9Eo7IogCOQVI09tV/AvgvDq62G+AfSGY8FbqNFoILMHfMLgcGo0GuAyNRgMvcoZfJMAD5PBYDCZTOAkZ1lWlmVRFFmWbTabrVYLnMZv5nTEBUGj0ZAkCf5h8BvD8Q/wuvE8D6394KP3mti3Gj3jWIg0sizbarXACwUt0vL5vFardbvdkFPxznMsiqIYhkG3ZY7jcrkc9BqG7nIwLaAzQ9e5PoVGo4EwHo7jPM9XKhWGYWRZbrVauVxOFEWbzQYt51SOPR293GNBCWw0GqVSCeKN5XL54OBAq9UGg0Gz2fz+nMACjoVew5DeVK/XK5VKt9uF1oz9zrFKsIokSRBMEM2q1Wo7OzuyLIdCIbvdrqjNKp6H3sgz2GP9fv/k5KQkST/++CO0wMxmsyiKejyeoaEhm832nrArgiA2my2RSMDpv/n5+f39/W632263KYpyu90+n89oNPa1gYeiqFardTgcY2Nj5XJ5Z2enVCo9efKkVCoVCgWv1zsyMgLJT72m9G1HzzhWo9EkEgmSJP/yl7/88Y9/rFQqtVptampqeno6Go2OjY319ZbysvB4PGazudFopFKpr7/+emtry2q1BoPBTz/9dHZ2NhgMkiTZ1/ILqgUEAgG9Xv/jiMxSawAAEQhJREFUjz/++c9/3tvbOzw8jEQiiURiamrq5s2bJpOp12T2AXrDsXA+w2q1arXaarXa7XZrtVqz2RwdHR0ZGQkGg9Cf+/2BTqfTarWxWIxlWaPR6Pf7zWaz1+sdGxsLhUIURb0D9jyKomCmDg4O1uv1QCCQz+f9fn80Gk0kEna7/R0Y4xtAL618cB5++OGHV65cEUVRSTN+A/UW3kJgGBaLxQKBwO3bt3meB8MPjsW+M0sZPMZjY2MDAwNQHwfK4pAk+f74LF4TveRYDMMwDKMoiqKoHpLx9gCk1TusHIJuBYHZXtPSr3hHhLcKFe8J3t/YF4TsXS4X6ORut7uHZdneBhiNxmg06na7EQSx2WxqlOXtxPvLsRiGEQTh8XicTifyVEXvNVG9hMlkGhwchHRRyOvoNUUqnoH3l2MBECfsNRVvBdQCS30BVY6qUNFPUDlWhYp+Qo+7eCAIIggCnLaTZRmqwr+x2vDwUjg2BCf73ga1EKiCOYGpeDNUKVOBXKRVD28RBAH+AS/q68Kubxi95Nhut8swzOPHjx89etRoNBiGSSQSiUQiHo+HQqGLfjsUWCqXyxsbG5IkDQ4OOhyOnruL4ThLrVbb3NysVqujo6PhcBgq1130q5vN5uHhYbvdRhDEarX6fL6L6OLB8/zGxsbi4mI2my2VSh6PJxQKjYyMDA0NqV08zoKedfFAEKTZbGaz2bm5uT/84Q+FQqFSqVy/fv3GjRskSXo8nouWu1C8r1gsJpNJnufNZjNN0709kQubT7lc3t/f//HHHw8ODvR6/RuYCkCr1drd3VW6eDidznPv4sGybKPRWFtb+/Of/7yxsbG/v59IJCYmJjAM8/v9er3+Ha7CcV7oDcdC5YGNjY179+6JoviLX/wCupvVajWli0cgEIC4y/uDdrtdrVZ/+OGHubm5UqkENTp6TdT5QJIkSZIymczCwkI+nx8cHJyYmDCZTM1ms1qt5nK5e/fuDQ8Px+PxXlP6tqOXXTxSqdSDBw9mZmY++ugjn8/ncDj+9Kc/3b17N5PJYBhmMBgcDsfbYFi+AYiiCE0u9vf3l5aWksmkTqfzer3vTLlmKDeRy+Xm5+f1ej108ZiYmEgmk3fv3q1UKoVCgabpWCz2lngT3lr0vicAdPGAsk/vbRePer2+t7d39+7d3/3udwiCfPjhh5FIBPLje03a+UDp4tHtdk/p4tHpdNQK46ejZxXGoR4KJL4rVZ2sVqvX6xVFMZvNviddPABg4OVyuYODA6vVOj097fV636WiOeDngy4eOp3O4XBAFw+TyeT3+zEMKxQKtVpN7QnwQvRMK4Y9Vqn9c7SLhyiK8PF4nn9PnP5QIufnP//55cuXDQYD9BDrNVHnCagwrnTx0Ov1ShcPg8EAXTxAjhMEoZ7sOQW94Viogs/zvPYplC4eBoNBluV2u/2edPEAQLNjp9MpSVKpVEqn0+9YIr7Sd0cQBDiDAQo/VGwDuSwIAsuy74yz7YLQyy4eEPpT8T7gaBcPqHvaa4r6FT3r4qHkOfWEABVvGEfTy9SP/jroDcfqdDpojqr68d8TgO1qMBgUC7bXFPUresaxJpNJp9Od7OLBsiyKogRBQL1F9dO+G4AKT9CcBXmaTI48be0HEQFoaPLOuMcvCL3sCaDRaJS+3UoXj3q9/l518XhPAH13oJk1RArAmoV/H+3i8Y653M4dve8J0Gq1ms0mdDRuNBqFQkHp4qFy7DsD6OysdPGoVqutVguOPeTzeVEUrVaryWTS6/XvTNLIBaHHfXegi0exWHzPu3i884DQq06nIwjieV08HA6HyrEvRC+7eHg8npGREVEUf/rpJ6PRSJJkOp2WZdnlciUSCavVqm6w7wyg/LLD4RgZGalWq7u7u3CisFAo5PN5+OIej0dl1xeiZxyLYdjg4CBBEPfu3fvjH/9YrVYbjcb4+Pjk5CR08XjHkn7ec8C5fL/f/+GHHz548ODrr79OpVL5fD4YDEaj0cnJyVu3btE03Wsy+wA96+Kh0WigxGatVms0GgrHjo2NBYPB9/bjQbdrm802MjLidDq9Xm/PD9mfF1AUhfMe8Xi8XC7b7fZcLhcMBmOx2MDAgNPpfE8yUl8TvVRCIDT34YcfTk9Pg7sfqsW/z7sriqJGo5EgCJvNJgiCwWAA/2qv6TofgMd4fHw8Go1yHAddPAiCUF3EZ0fvu3iYzWaz2dxDMt42QMWJd7L5EJx9NRqN71sntHPEu6BuqVDx/uD9dc1BvMHhcExNTUmS5HQ63xmL8dVgMBjC4bDD4UAQxG63q2rq24n3l2OVLh6wRsF9/c5YjK8AmqaNRuNFVz9V8Zp4fzkWeeqyVl2UALWhSV9AlaMqVPQTVI5VoaKf8BZpQcpB5zdsTCr9F9/kS0+h5Ng8vEnC3swn6Pkw+xpvC8fu7u7u7u4aDAaj0aj0dL1QQHW/SqWytbUlSVI8Hnc4HD08nynL8s7Ozvb29vb2diaTMZlMDodjcnIyHo9DHsVFEwAtGpQuHpBudb6vgC4e29vbS0tL+XweungEAoGhoaFEIqF28TgLes+xkiSJori9vf3dd985nU7olf4GOBa6eBQKhZ9++onneYqiTCZTrxYNlPPd2dn5y1/+cvfu3cXFRbfbHY/HJUkym80wJxe9CzEMs729rXTxsNvt586xPM83m82VlZU//OEPq6uru7u7IyMjU1NTsiwHAgGSJM/9je8ees+x+/v7W1tbd+7c+e6772ZnZ91ud68p6gFyuVwmk0mlUhzHffrpp7/85S8hbbNYLN65c+f69euJROLN9Mu6IEAXj4ODA9hdh4aGxsfHDQZDu91uNpv5fP7evXtDQ0OxWKzXlL7t6BnHQn1anuf39/d/+umnZDK5tLQUjUZ7RU9vUSwWV1ZW8vm8LMs3b96cnZ3N5XLb29vffPPN1tZWMBgMBAJ9HYiCchO5XG5ubk6v1w8MDIyNjU1OTj58+PC7774rlUqFQoGiKFgAqk17CnrDsaAJb21tLS8vl0olWZZjsZher49EIj2hp+fodDq1Wo0kyXA4bLFYCIKgadpms5EkCaU5qtUq1HDoNaWvCKUnAMuyZrP5WBeP9fX1vb29crncbrehTkWv6X170TMvC5TSXl1drVarJpMpGo1euXLF4/H0hJ7eAgpcAcf6fD5oiklRlMViIUlSlmWGYer1Osdxvab01QEcy7Isx3E4jjudTpPJBF08AoEAhmG5XK5Wq6l9d16I3uyxUJEgHo9D7Rgcx9fX19fX13tCTG8BpSQ7nU6j0XC73cClkIwFFScpiuI4rtFo8Dzfa2JfHTBGjuOgi4fBYDjZxYPjuHa7/U4eWjpH9PJEu8/n8/l88Eu1Wn0/ORa8xO12u9FoIAhiNBpBJ9RoNDiOQ8VQpbFYr4l9dQiC0O12of4ehmFKFw+tVkuS/7e9e/tNIg3DAA7DYTjMDMOhTLEtLa3UNh5i9KZtotf6F3rlX2KiiZqaWA0ajbGhyqFiOZfDEKgjYS/eLMtGd7eaLd+88PyubNKED8ojM8x87+ObbPHAZ+y/w+UvwehwsdfrtVqtwWAgejkXZbLFw7Is1AL8NiRWMDqlnxy0PZOot4We6Qw/zSlAYgWj0/hgMBgOh2f4FI7mxRCPx4PrN78NiRWMzlcDgQB9RUwdnI4/L4DRJWv6HdZ38NG8W5rsJUnSuMubTgrGLR6YKf+f8OoIRp+xlFiquj47O3M4HMPh8Nu3b6Zp9no9r9eraRrrq5TUu0PfD1OXLLV4WJZFvexo8TgnJFYwp9MpSZLf7w+FQpZlVSoV0zTpPd3tdundHAgEQqEQ67cyzZqTZfnHFo9qtfr9+/dQKKQoCpUtiV6srSGxtuD3+3Vd7/f7xWKx1WrRBdhmszkYDFwul6Zpuq7zveHJ8eeAix9bPNrtdi6XQ4vH+eHVsYVwOLy+vn52dlar1d69e9doNHq9XqfT8fl86XTaMAxFUVi/lengPxKJpNPpTqeTz+e73W6hUDg5OSmXy7FYbH19HS0e54EXyBYok6Zplkqlx48fF4tFTdMSicTe3t6tW7dWV1d9Ph/rr2ToM3Z5efnOnTsHBwdPnz598uRJvV5PJBLJZPLq1at7e3u6roteJgN2SezCwsLW1paiKJqmqaoqejnTRt2qqVSKzu48Ho+u60tLS1tbWxsbG5qm8d21Q+hyjqIoXq/39PS0Wq0GAgFVVZPJ5OXLlzc2NhKJBPfnOB12Seza2lo8HqcNZfPZ4iFJEh0Z7u7uDgYDOuujiaQz81amizfXrl1LJpO0K0CWZZ/PR308olfHg10SGwgEAoGA6FUIRvUWU5i/IQrdT66q6hweRv1fGJ8aAcwhu3zGTh9t9YpGo9evXx8Oh7FYDC0eKysrkUjEgRYPG5vfxI5bPCKRyGg0ov1f83y/q6qq6XSadtW4XC5caLGnuf6r0CUHvDUJ/RcmehXwH+b3IBCAIyQWgBMkFoATJBaAE7t86TIajSYbq6b2ne3k49rni2JRq5ocv3TRjzvZl2WrF9/m7JLYfD6fy+X8fn8wGEwkElNuyhoOh+l0WmxTFqEto+12+9OnT6enp9vb28lk0uPxTOFGxW63+/Xr136/73A4dF2/dOnShe7vq9frJycnvV6v3++nUqm5rYP4VeITSwN7j46OqClrcXFRluXpN2XRrXNi69VofFmr1SoWi/v7+8fHx16vNx6PS5I0hcSapvn58+dxUxbdUnIRD0QdPOVyOZPJtFqtTqfjdruR2HMSn9hisZjNZqkpa2dnZz5rAQjNQN3f33/16lW1WnW5XKxnFP+TZrNZKpWePXv26NGjhYWFZDIpekWciPw8oTlG+Xz+4OAgk8m8f/++VquJWo9YNNWp0WjkcrlMJrO/v//ly5fZm4dK03DK5fKHDx9ev3794sWLQqGA2cW/xC5NWalUyu/3r66uClmPcO12u16vv3z58s2bNx6P5+7du5VKhXWZ3U9VKpXDw8NisVgqlXRdv3//PvVliV4XJ2ISO27K+vjxo9vt1jRNluWlpaVwOCxkPcINBgM6fc1mszs7O5ubm2/fvm00GjOWWNM0C4VCtVrt9/uLi4vb29vUHyt6XZygKcsWQqGQ2+2+d+/ezZs3g8HgaDSayW39hmHs7u5SkUez2azVajTqFc4PTVm2QHvZ4/E4HXocHx/P5GY3XdfHw5wODw87nY4kSTgq/iW45wmAEyQWgBMkFoATJBaAEyQWgBMkFoATJBaAEyQWgBMkFoAT8bvtyJw3ZY05nU5ZlsPh8JUrV8LhsGEYwjfZXxBVVZeXlzVNM00zFouJXg4bdkns2tqaYRi0W2Wep+Y6nU5FUWRZ1nXdsixFUfx+/0zexxeLxVRVpXkGqFw6P7skFk1ZY3NS8Of1elm3zosyg4dbADPMLp+x0zduyrpx4waashxoymJifhM7bsqKRqPUlOVyuWbyjPGcVFXd3NykGS60gVn0iuAn5vqvgqasSZIk4cTS/ub3IBCAIyQWgBMkFoATJBaAEyQWgBMkFoATJBaAEyQWgBMkFoATJBaAEyQWgBMkFoATJBaAEyQWgBMkFoATJBaAEyQWgBMkFoATJBaAEyQWgBMkFoATJBaAEyQWgBMkFoATJBaAEyQWgBMkFoATJBaAEyQWgBMkFoATJBaAEyQWgBMkFoATJBaAEyQWgBP35A+WZZmm2Wq1RK0GAH7U7XYty6J//y2xR0dHDx48MAxDxKoA4OdqtVo2m11ZWXFMJjaRSFiW9fz5c3ELA4B/FI1GvV6vczQa0c8PHz4UuyAA+BeGYdy+ffuvxAKA/f0B9UpPyOiXB9IAAAAASUVORK5CYII=;" vertex="1" parent="1">
                    <mxGeometry x="40" y="376.36" width="130.16" height="115.29" as="geometry"/>
                </mxCell>
            </root>
        </mxGraphModel>
    </diagram>
</mxfile>